# xmcd CD database file
#
# Track frame offsets:
#	150
#	15910
#	31274
#	44859
#	58791
#	74431
#	91114
#	109546
#	126105
#	138109
#	154964
#	174901
#	192671
#	217447
#	233401
#	250695
#	266024
#	282952
#
# Disc length: 4076 seconds
#
# Revision: 1
# Processed by: cddbd v1.5.2PL0 Copyright (c) Steve Scherf et al.
# Submitted via: CDex 1.51
#
DISCID=010fea12
DTITLE=FERNANDO E SOROCABA - BOLA DE CRISTAL
DYEAR=1900
DGENRE=SERTANEJO
TTITLE0=BOLA DE CRISTAL
TTITLE1=A CASA CAIU
TTITLE2=TÔ PASSANDO MAL
TTITLE3=TEUS SEGREDOS
TTITLE4=CELEBRIDADE
TTITLE5=DELEGADA
TTITLE6=ATÉ O FINAL
TTITLE7=JOGA NO LIXO
TTITLE8=PARA COM ESSA MARRA
TTITLE9=MADRI
TTITLE10=DESORIENTADO
TTITLE11=BOCA A BOCA
TTITLE12=QUE RAIVA QUE DÁ
TTITLE13=VACILEI
TTITLE14=6 DE JANEIRO DE 2003
TTITLE15=PORQUE TÁ COMIGO
TTITLE16=ME ENGANA
TTITLE17=PEGA PAU
EXTD=
EXTT0=
EXTT1=
EXTT2=
EXTT3=
EXTT4=
EXTT5=
EXTT6=
EXTT7=
EXTT8=
EXTT9=
EXTT10=
EXTT11=
EXTT12=
EXTT13=
EXTT14=
EXTT15=
EXTT16=
EXTT17=
PLAYORDER=
